<?xml version="1.0" encoding="UTF-8" standalone="no"?>
<svg width="137px" height="52px" viewBox="0 0 137 52" version="1.1" xmlns="http://www.w3.org/2000/svg" xmlns:xlink="http://www.w3.org/1999/xlink" xmlns:sketch="http://www.bohemiancoding.com/sketch/ns">
    <!-- Generator: Sketch 3.2.2 (9983) - http://www.bohemiancoding.com/sketch -->
    <title>Path 32 + cahoots 9</title>
    <desc>Created with Sketch.</desc>
    <defs>
        <filter x="-50%" y="-50%" width="200%" height="200%" filterUnits="objectBoundingBox" id="filter-1">
            <feOffset dx="0" dy="2" in="SourceAlpha" result="shadowOffsetOuter1"></feOffset>
            <feGaussianBlur stdDeviation="1.5" in="shadowOffsetOuter1" result="shadowBlurOuter1"></feGaussianBlur>
            <feColorMatrix values="0 0 0 0 0   0 0 0 0 0   0 0 0 0 0  0 0 0 0.042 0" in="shadowBlurOuter1" type="matrix" result="shadowMatrixOuter1"></feColorMatrix>
            <feMerge>
                <feMergeNode in="shadowMatrixOuter1"></feMergeNode>
                <feMergeNode in="SourceGraphic"></feMergeNode>
            </feMerge>
        </filter>
        <filter x="-50%" y="-50%" width="200%" height="200%" filterUnits="objectBoundingBox" id="filter-2">
            <feOffset dx="0" dy="2" in="SourceAlpha" result="shadowOffsetOuter1"></feOffset>
            <feGaussianBlur stdDeviation="1.5" in="shadowOffsetOuter1" result="shadowBlurOuter1"></feGaussianBlur>
            <feColorMatrix values="0 0 0 0 0   0 0 0 0 0   0 0 0 0 0  0 0 0 0.056 0" in="shadowBlurOuter1" type="matrix" result="shadowMatrixOuter1"></feColorMatrix>
            <feMerge>
                <feMergeNode in="shadowMatrixOuter1"></feMergeNode>
                <feMergeNode in="SourceGraphic"></feMergeNode>
            </feMerge>
        </filter>
    </defs>
    <g id="Page-1" stroke="none" stroke-width="1" fill="none" fill-rule="evenodd" sketch:type="MSPage">
        <g id="Desktop-HD" sketch:type="MSArtboardGroup" transform="translate(-118.000000, -26.000000)">
            <g id="Path-32-+-cahoots-9" sketch:type="MSLayerGroup" transform="translate(120.000000, 26.000000)">
                <path d="M43.8839802,4.70032051 C45.0432316,4.70032051 46.7913032,5.64870837 48.9867409,7.53497314 C50.1469167,8.53176703 51.3718917,9.72703822 52.8935327,11.316847 C53.4201496,11.8670557 55.9529842,14.5674895 56.6146429,15.2508205 C58.014304,16.696327 59.0381608,17.6438381 59.9655835,18.2930262 C62.5997636,20.1369303 65.3072353,19.6994668 69.1692884,17.8248211 C69.5375191,17.6460814 69.8816716,17.4731092 70.4363468,17.1901957 C73.1065929,15.8282301 74.1124214,15.4259676 74.9429155,15.4434135 C75.9063868,15.4636528 76.4919941,15.6804038 77.5662194,16.3373937 C77.6764563,16.4048139 78.111211,16.6746893 78.2153321,16.7385754 C80.4167989,18.0893412 82.2344593,18.7003205 85.1398847,18.7003205 C86.8424905,18.7003205 88.7000172,18.1597866 91.0929687,17.1062299 C91.9913595,16.710691 97.2113167,13.9002486 97.8866235,13.5643714 C103.688283,10.6788013 106.51916,8.94205152 110.142525,8.6954364 C117.496715,8.1948923 120.874781,11.7287589 122.83541,19.0035068 L127.422754,18.1489371 C125.178158,8.84843857 118.676267,3.73717949 110.28952,4.38701923 C105.72636,4.74059167 101.845071,6.55760715 95.47056,9.72809657 C87.2423044,13.8205824 87.2846923,13.9823718 85.5497461,14.1875 C83.8147998,14.3926282 82.3203827,13.8383989 80.7764476,12.8910783 C80.686691,12.8360058 80.2482301,12.5638299 80.1217972,12.4865043 C78.4275161,11.450292 76.9284945,10.9713096 75.0375113,10.9315865 C73.1300245,10.8915166 71.8571691,11.4005715 68.3894279,13.1693015 C67.8594268,13.4396299 67.5367489,13.6018089 67.20208,13.7642576 C64.6988944,14.9793072 63.3987496,15.1893799 62.5493314,14.5947943 C61.922172,14.1557879 61.0632948,13.3609544 59.8520541,12.11004 C59.2211857,11.4585078 56.700581,8.77111314 56.1490676,8.19489264 C54.5347479,6.50825323 53.2150422,5.22054846 51.9231921,4.11062336 C48.9753426,1.57790525 46.4125431,0.1875 43.8839802,0.1875 C36.5874559,0.1875 30.9305211,8.46788845 30.9305211,19.1638622 L35.4485517,18.5015024 C35.4485517,10.2089239 39.5529156,4.70032051 43.8839802,4.70032051 Z" id="Path-32" fill="#F53262" filter="url(#filter-1)" sketch:type="MSShapeGroup"></path>
                <path d="M118.355369,40.9900463 C117.237241,43.4845142 114.974717,44.3733333 113.521751,44.3733333 C111.45605,44.3733333 111.364241,41.662359 111.364241,40.2379487 L111.364241,26.2235897 L114.898885,26.2235897 L114.898885,24.6153846 L111.364241,24.6153846 L111.364241,17.6311795 L106.773794,18.2744615 L106.773794,24.6153846 L105.213042,24.6153846 L105.213042,26.2235897 L106.773794,26.2235897 L106.773794,28.8491863 C106.408098,29.9914199 103.906887,31.6455385 101.573473,31.6455385 L101.298046,31.6455385 C100.701288,27.5561026 98.911014,24.385641 94.0910448,24.385641 C90.2999709,24.385641 87.9699849,26.6281352 86.641408,29.5410411 L86.641408,29.5410411 C85.2195663,30.6759701 82.8504715,31.6455385 80.9459724,31.6455385 L80.6705456,31.6455385 C80.0737875,27.5561026 78.2835132,24.385641 73.463544,24.385641 C66.5778738,24.385641 64.5121727,31.7833846 64.5121727,37.1593846 C64.5121727,38.444569 64.6311347,39.5948809 64.8479369,40.6201996 C63.6254221,42.7873224 61.8287199,44.3733333 60.8201418,44.3733333 C58.8003452,44.3733333 58.7544408,41.3866667 58.7544408,40.4217436 C58.7544408,38.0324103 59.0298676,34.7700513 59.0298676,32.6104615 C59.0298676,29.0724103 58.2953961,24.385641 52.7409554,24.385641 C51.1802035,24.385641 49.0226935,24.7532308 47.2324192,28.1074872 L47.2324192,15.425641 L42.6419723,16.0689231 L42.6419723,39.5714937 L42.6419723,39.5714937 C41.2680968,43.0658731 38.945996,44.3733333 37.5793652,44.3733333 C35.6054731,44.3733333 35.5136641,41.4326154 35.5136641,40.2379487 L35.5136641,23.5407151 L30.9232173,24.2051282 L30.9232173,26.8209231 C30.0510324,24.9370256 28.1230447,24.385641 26.6541017,24.385641 C20.411094,24.385641 17.9322527,31.6914872 17.9322527,37.3431795 C17.9322527,37.8948388 17.9533523,38.4213888 17.9938928,38.923601 C16.2155253,41.7877482 13.4808335,43.8561694 10.4722721,43.8561694 C7.42392853,43.8561694 5.14328671,42.8574239 5.14328671,36.2820814 C5.14328671,31.8202419 6.17503378,26.3251342 9.55166054,26.3251342 C11.1930763,26.3251342 12.3359591,27.4835736 12.3359589,28.814371 C12.3359587,30.1451685 11.9833856,31.0601886 11.7436304,31.2566411 C12.1657088,31.8672086 12.7284799,32.2429424 13.4788414,32.2429424 C14.6981789,32.2429424 15.3078476,31.0218074 15.3078476,29.4719053 C15.3078476,25.8085002 12.7875945,23.8358974 8.84819663,23.8358974 C1.76665995,23.8358974 0.172141757,31.6793417 0.172141757,36.8926489 C0.172141757,45.0178935 4.81500356,47.8358974 9.1295822,47.8358974 C12.6809564,47.8358974 16.3685759,45.2736458 18.5537985,41.9853122 L18.5537985,41.9853122 C19.8449104,46.2217829 22.9345499,47.8654359 25.7819168,47.8654359 C28.6738983,47.8654359 30.8314084,45.889641 31.7494977,43.5003077 C32.2085424,45.7977436 33.8119283,47.8717269 36.6120925,47.8654359 C37.4709748,47.8635063 40.5275983,47.0900043 42.6419723,43.6582061 L42.6419723,47.7564109 L47.2324191,47.7564109 L47.2324192,32.8861538 C48.1046041,29.3021538 49.4817381,27.8777436 51.3638213,27.8777436 C52.9245733,27.8777436 54.3017073,28.8886154 54.3017073,32.8402051 C54.3017073,34.0808205 54.1639939,39.6865641 54.1639939,40.8352821 C54.1639939,44.5571282 55.883772,47.8654359 59.7397474,47.8654359 C61.1357256,47.8654359 63.837284,46.7865843 65.7446839,43.2783709 L65.7446839,43.2783709 C67.3630288,46.5755068 70.3247356,47.8654359 73.0963083,47.8654359 C78.0539909,47.8654359 80.9459724,43.3165128 80.9459724,35.7809231 C80.9459724,35.137641 80.9000679,34.494359 80.9000679,33.8970256 C82.5765055,33.6219349 84.3352109,33.033925 85.7329071,32.1822963 C85.3147626,33.8577277 85.1396735,35.5942378 85.1396735,37.1593846 C85.1396735,45.0625641 89.6383114,47.8654359 93.7238091,47.8654359 C98.6814917,47.8654359 101.573473,43.3165128 101.573473,35.7809231 C101.573473,35.137641 101.527569,34.494359 101.527569,33.8970256 C103.445009,33.5823881 105.60347,33.1073731 106.773794,31.5788604 L106.773794,31.5788604 L106.773794,41.2028718 C106.773794,44.2354872 107.783692,47.8654359 112.190521,47.8654359 C112.926666,47.8654359 113.874016,47.7649172 114.88142,47.3088468 C116.099315,46.7574839 117.576568,45.6864671 118.824069,43.6451735 C119.667681,45.8757372 121.725288,47.8654359 125.604864,47.8654359 C128.221572,47.8654359 132.925405,46.2572308 132.925405,41.7083077 C132.925405,36.8836923 132.053169,34.9997949 129.115111,23.1909744 L123.863695,24.1099487 C123.404623,28.6129231 121.614244,33.1618462 120.007493,37.7107692 C119.10367,38.2083219 118.377792,39.4182999 118.355369,40.9900463 L118.355369,40.9900463 Z M26.9295285,44.3733333 C24.2670694,44.3733333 22.7522219,42.2596923 22.7522219,37.0215385 C22.7522219,32.7483077 24.2670694,26.9128205 28.2148537,26.9128205 C29.5919877,26.9128205 30.5100771,27.9236923 30.9232173,28.8886154 L30.9232173,39.3649231 C30.9232173,42.1677949 28.8116117,44.3733333 26.9295285,44.3733333 Z M73.9225887,44.3733333 C71.8568876,44.3733333 69.4698553,42.9489231 69.4698553,36.9755897 C69.4698553,32.4726154 70.8469893,26.9128205 74.6570602,26.9128205 C76.0341943,26.9128205 77.2277104,27.648 77.9621819,29.761641 C76.7686658,29.8075897 76.1260032,30.3130256 76.1260032,31.7374359 C76.1260032,33.2996923 76.8604747,33.9429744 78.6048445,34.0348718 C78.650749,34.4024615 78.650749,34.7700513 78.650749,35.137641 C78.650749,40.9731282 77.1359015,44.3733333 73.9225887,44.3733333 Z M94.5500895,44.3733333 C92.4843884,44.3733333 90.0973561,42.9489231 90.0973561,36.9755897 C90.0973561,32.4726154 91.4744901,26.9128205 95.284561,26.9128205 C96.6616951,26.9128205 97.8552113,27.648 98.5896827,29.761641 C97.3961666,29.8075897 96.753504,30.3130256 96.753504,31.7374359 C96.753504,33.2996923 97.4879755,33.9429744 99.2323453,34.0348718 C99.2782498,34.4024615 99.2782498,34.7700513 99.2782498,35.137641 C99.2782498,40.9731282 97.7634023,44.3733333 94.5500895,44.3733333 Z M124.435538,44.4192821 C122.415741,44.4192821 121.176321,43.1786667 120.717276,41.0190769 C121.084512,41.4785641 121.497652,41.662359 121.956697,41.662359 C122.691168,41.662359 123.42564,41.0190769 123.42564,39.870359 C123.42564,38.8594872 122.966595,38.2162051 122.415741,37.8486154 C123.333831,34.5403077 124.915895,31.5076923 125.283131,28.1074872 C126.981597,36.1025641 128.217454,38.7362729 128.058712,41.2028718 C127.89997,43.6694707 126.363526,44.4192821 124.435538,44.4192821 Z" id="cahoots-7" fill="#25252D" filter="url(#filter-2)" sketch:type="MSShapeGroup"></path>
            </g>
        </g>
    </g>
</svg>