<?xml version="1.0" encoding="UTF-8" standalone="no"?>
<svg width="30px" height="30px" viewBox="0 0 30 30" version="1.1" xmlns="http://www.w3.org/2000/svg" xmlns:xlink="http://www.w3.org/1999/xlink" xmlns:sketch="http://www.bohemiancoding.com/sketch/ns">
    <!-- Generator: Sketch 3.2.2 (9983) - http://www.bohemiancoding.com/sketch -->
    <title>Rectangle 22 + #</title>
    <desc>Created with Sketch.</desc>
    <defs></defs>
    <g id="Page-1" stroke="none" stroke-width="1" fill="none" fill-rule="evenodd" sketch:type="MSPage">
        <g id="Desktop-HD" sketch:type="MSArtboardGroup" transform="translate(-1036.000000, -1331.000000)">
            <g id="Group" sketch:type="MSLayerGroup" transform="translate(120.000000, 1331.000000)">
                <g id="Wir-setzen-auf-nutze-+-Rectangle-4-+-Rectangle-22-+-Path-58-+-Verifizieren" transform="translate(916.000000, 0.000000)" sketch:type="MSShapeGroup">
                    <g id="Rectangle-4-+-Rectangle-22-+-Path-58-+-Verifizieren">
                        <g id="Rectangle-22-+-#">
                            <rect id="Rectangle-22" fill="#F4F4F6" x="0" y="0" width="30" height="30" rx="50"></rect>
                            <path d="M16.19,18.98 L13.41,18.98 L12.73,22.5 L10.59,22.5 L11.27,18.98 L9.67,18.98 L9.67,17.08 L11.63,17.08 L12.21,14.06 L9.67,14.06 L9.67,12.18 L12.57,12.18 L13.25,8.64 L15.39,8.64 L14.71,12.18 L17.49,12.18 L18.17,8.64 L20.31,8.64 L19.63,12.18 L21.25,12.18 L21.25,14.06 L19.27,14.06 L18.69,17.08 L21.25,17.08 L21.25,18.98 L18.33,18.98 L17.65,22.5 L15.51,22.5 L16.19,18.98 Z M13.77,17.08 L16.55,17.08 L17.13,14.06 L14.35,14.06 L13.77,17.08 Z" id="#" fill="#3E3E47"></path>
                        </g>
                    </g>
                </g>
            </g>
        </g>
    </g>
</svg>