<?xml version="1.0" encoding="UTF-8" standalone="no"?>
<svg width="26px" height="26px" viewBox="0 0 26 26" version="1.1" xmlns="http://www.w3.org/2000/svg" xmlns:xlink="http://www.w3.org/1999/xlink" xmlns:sketch="http://www.bohemiancoding.com/sketch/ns">
    <!-- Generator: Sketch 3.2.2 (9983) - http://www.bohemiancoding.com/sketch -->
    <title>chrome4</title>
    <desc>Created with Sketch.</desc>
    <defs></defs>
    <g id="Page-1" stroke="none" stroke-width="1" fill="none" fill-rule="evenodd" sketch:type="MSPage">
        <g id="Desktop-HD" sketch:type="MSArtboardGroup" transform="translate(-538.000000, -820.000000)" fill="#F4F4F6">
            <g id="Rectangle-4-+-Safari-+-safari1-+-Rectangle-4-+-chrome4-+-Rectangle-4-+-firefox" sketch:type="MSLayerGroup" transform="translate(529.000000, 814.000000)">
                <g id="Rectangle-4-+-chrome4" sketch:type="MSShapeGroup">
                    <g id="chrome4" transform="translate(9.887496, 6.631884)">
                        <path d="M6.23467451,10.8459477 L2.69748077,4.68193852 C4.96219047,1.82912738 8.44830525,0.000922894022 12.3593699,0.000922894022 C16.8839132,0.000922894022 20.8397323,2.44746637 22.9935456,6.09688077 L12.9088308,6.09688077 C12.7276888,6.08109443 12.5445191,6.07259409 12.3593699,6.07259409 C9.41740538,6.07259409 6.93819302,8.10402955 6.23467451,10.8459477 L6.23467451,10.8459477 Z M16.7842175,7.89409545 L23.8681642,7.89409545 C24.4171423,9.3010231 24.7186916,10.8328815 24.7186916,12.4357055 C24.7186916,19.256038 19.2607262,24.7928679 12.4996198,24.8686909 L17.5542642,16.0604446 C18.2659901,15.0312235 18.6838913,13.7816736 18.6838913,12.4357055 C18.6838913,10.6586488 17.9557506,9.04965591 16.7842175,7.89409545 L16.7842175,7.89409545 Z M7.86944258,12.4357055 C7.86944258,9.94486311 9.88363364,7.91838213 12.3593699,7.91838213 C14.8350579,7.91838213 16.8492973,9.94486311 16.8492973,12.4357055 C16.8492973,14.9264993 14.8350579,16.9530289 12.3593699,16.9530289 C9.88363364,16.9530289 7.86944258,14.9264993 7.86944258,12.4357055 L7.86944258,12.4357055 Z M14.0535209,18.5666362 L10.5152168,24.7324912 C4.56408358,23.8367011 0,18.6726233 0,12.4357055 C0,10.2203227 0.576545296,8.14070245 1.58586165,6.33916474 L6.63171927,15.1322561 C7.64238743,17.2964426 9.82960968,18.7987683 12.3593699,18.7987683 C12.9459572,18.7988169 13.514102,18.7176994 14.0535209,18.5666362 L14.0535209,18.5666362 Z" id="Shape"></path>
                    </g>
                </g>
            </g>
        </g>
    </g>
</svg>