<?xml version="1.0" encoding="UTF-8" standalone="no"?>
<svg width="25px" height="24px" viewBox="0 0 25 24" version="1.1" xmlns="http://www.w3.org/2000/svg" xmlns:xlink="http://www.w3.org/1999/xlink" xmlns:sketch="http://www.bohemiancoding.com/sketch/ns">
    <!-- Generator: Sketch 3.2.2 (9983) - http://www.bohemiancoding.com/sketch -->
    <title>Shape</title>
    <desc>Created with Sketch.</desc>
    <defs></defs>
    <g id="Page-1" stroke="none" stroke-width="1" fill="none" fill-rule="evenodd" sketch:type="MSPage">
        <g id="Desktop-HD" sketch:type="MSArtboardGroup" transform="translate(-678.000000, -822.000000)" fill="#F4F4F6">
            <g id="Rectangle-4-+-Safari-+-safari1-+-Rectangle-4-+-chrome4-+-Rectangle-4-+-firefox" sketch:type="MSLayerGroup" transform="translate(529.000000, 814.000000)">
                <g id="Rectangle-4-+-firefox" transform="translate(139.138811, 0.000000)" sketch:type="MSShapeGroup">
                    <g id="firefox" transform="translate(9.887496, 7.460870)">
                        <path d="M23.9298001,8.43301727 L23.362299,9.71030372 C23.362299,9.71030372 23.1120218,7.34596497 22.7330011,6.06554279 C22.3539804,4.78825633 21.538262,3.95728847 21.538262,3.95728847 L21.9141928,5.68298399 C21.9141928,5.68298399 20.5948301,4.04717933 19.3290246,3.45452678 C19.1312747,3.36150019 18.9335248,3.27160933 18.7378348,3.18380895 C17.0734396,1.67552388 14.8837712,0.751529427 12.475754,0.751529427 C9.06765774,0.751529427 6.09213943,2.59324688 4.43804375,5.34432539 C4.35564795,5.29310851 3.883932,4.98789767 3.65425371,4.40569754 C3.40191657,3.76600907 3.27420309,3.06360605 3.27420309,3.06360605 C1.70147326,4.59697694 2.0774041,7.15259509 2.0774041,7.15259509 C2.0774041,7.15259509 1.44810618,7.79228355 0.819838206,8.81557606 C0.190540286,9.83782331 -2.47878836e-14,11.6899932 -2.47878836e-14,11.6899932 L1.07114539,10.5423168 C1.07114539,10.5423168 0.819838206,11.05135 0.631357814,12.0108827 C0.441847475,12.9704154 0.503644325,14.5048315 0.503644325,14.5048315 L1.07114539,13.2881691 C1.07114539,13.2881691 1.07114539,17.1879693 4.72436916,20.6372698 C8.37553303,24.0876156 14.9229092,25.0492388 19.8985856,20.7020749 C24.8742619,16.3549109 23.9298001,8.43301727 23.9298001,8.43301727 L23.9298001,8.43301727 Z M12.475754,2.00582054 C14.4213248,2.00582054 16.2041639,2.6967259 17.6079824,3.84544751 L15.8055743,4.14961311 C15.8055743,4.14961311 17.6296113,4.72554178 19.0159206,5.81154883 C19.3619829,6.08331191 19.6441886,6.42301575 19.8748968,6.77944348 C20.1787313,7.43481059 20.4012,8.13616837 20.5278835,8.8730644 L19.6472784,8.17588759 C19.6472784,8.17588759 19.9603824,8.55949162 20.0242392,9.58173888 C20.0880959,10.6039861 19.7708721,12.4572013 19.7708721,12.4572013 L18.9551537,11.4987138 C18.9551537,11.4987138 19.1436341,13.0968897 18.8284701,14.5037863 C18.5133062,15.9065018 17.8211815,16.48034 17.8211815,16.48034 L17.9447752,14.8204948 C17.9447752,14.8204948 17.0013433,16.9318848 14.3564381,17.759717 C11.7135929,18.5906848 9.19537123,16.2273913 9.19537123,16.2273913 C10.8947846,16.6737099 11.9638701,15.7789822 12.847565,15.3326636 C13.7281702,14.8842546 14.1679577,14.8204948 14.5469784,14.8204948 C14.9239392,14.8204948 14.5469784,13.9268124 13.8527938,13.5421631 C13.1606691,13.1606495 12.3428908,13.3508837 10.7052743,13.7992928 C9.06662779,14.2466566 8.0583092,12.8397601 8.12422584,11.8833631 C8.18499274,10.9217399 9.69798561,11.4976686 9.69798561,11.4976686 L9.63618876,9.58173888 C9.63618876,9.58173888 12.1533804,7.98565343 11.9649,7.59995892 C11.7774496,7.21635488 10.8958145,7.34701021 10.1388031,7.08883529 C9.38488157,6.83484134 8.94406404,6.13034783 8.94406404,6.13034783 C8.94406404,6.13034783 8.8173805,5.6192242 9.06868769,5.17499609 C9.31896493,4.72658702 10.2006,4.08480807 10.2006,4.08480807 C10.2006,4.08480807 9.63515881,4.02209351 8.69069696,4.3408925 C7.74623511,4.66073674 7.05308044,5.23562016 7.05308044,5.23562016 C7.05308044,5.23562016 6.86768989,5.17708658 6.09728917,5.11332678 C7.59689272,3.22039244 9.89573553,2.00582054 12.475754,2.00582054 L12.475754,2.00582054 Z" id="Shape"></path>
                    </g>
                </g>
            </g>
        </g>
    </g>
</svg>