<?xml version="1.0" encoding="UTF-8" standalone="no"?>
<!-- Created with Inkscape (http://www.inkscape.org/) -->

<svg
   xmlns:dc="http://purl.org/dc/elements/1.1/"
   xmlns:cc="http://creativecommons.org/ns#"
   xmlns:rdf="http://www.w3.org/1999/02/22-rdf-syntax-ns#"
   xmlns:svg="http://www.w3.org/2000/svg"
   xmlns="http://www.w3.org/2000/svg"
   version="1.1"
   width="744.09448"
   height="1052.3622"
   id="svg3581">
  <defs
     id="defs3583" />
  <metadata
     id="metadata3586">
    <rdf:RDF>
      <cc:Work
         rdf:about="">
        <dc:format>image/svg+xml</dc:format>
        <dc:type
           rdf:resource="http://purl.org/dc/dcmitype/StillImage" />
        <dc:title></dc:title>
      </cc:Work>
    </rdf:RDF>
  </metadata>
  <g
     id="layer1">
    <path
       d="m 625.84935,269.53613 -0.5675,1.27729 c 0,0 -0.25027,-2.36434 -0.6293,-3.64476 -0.37902,-1.27729 -1.19473,-2.10826 -1.19473,-2.10826 l 0.37593,1.7257 c 0,0 -1.31937,-1.63581 -2.58517,-2.22846 -0.19775,-0.093 -0.3955,-0.18292 -0.59119,-0.27072 -1.6644,-1.50828 -3.85407,-2.43228 -6.26208,-2.43228 -3.4081,0 -6.38362,1.84172 -8.03771,4.5928 -0.0824,-0.0512 -0.55411,-0.35643 -0.78379,-0.93863 -0.25234,-0.63969 -0.38005,-1.34209 -0.38005,-1.34209 -1.57273,1.53337 -1.1968,4.08899 -1.1968,4.08899 0,0 -0.6293,0.63969 -1.25757,1.66298 -0.6293,1.02225 -0.81984,2.87442 -0.81984,2.87442 l 1.07115,-1.14768 c 0,0 -0.25131,0.50903 -0.43979,1.46857 -0.18951,0.95953 -0.12771,2.49395 -0.12771,2.49395 l 0.5675,-1.21667 c 0,0 0,3.8998 3.65322,7.3491 3.65117,3.45035 10.19854,4.41197 15.17422,0.0648 4.97568,-4.34716 4.03121,-12.26905 4.03121,-12.26905 l 0,0 z m -11.45404,-6.4272 c 1.94557,0 3.72841,0.69091 5.13223,1.83963 l -1.80241,0.30417 c 0,0 1.82403,0.57592 3.21034,1.66193 0.34607,0.27177 0.62827,0.61147 0.85898,0.9679 0.30383,0.65536 0.5263,1.35672 0.65299,2.09362 l -0.88061,-0.69718 c 0,0 0.31311,0.3836 0.37696,1.40585 0.0639,1.02225 -0.25336,2.87546 -0.25336,2.87546 l -0.81572,-0.95848 c 0,0 0.18848,1.59817 -0.12669,3.00507 -0.31516,1.40272 -1.00728,1.97655 -1.00728,1.97655 l 0.12359,-1.65984 c 0,0 -0.94343,2.11139 -3.58834,2.93922 -2.64284,0.83097 -5.16107,-1.53233 -5.16107,-1.53233 1.69942,0.44632 2.7685,-0.4484 3.6522,-0.89472 0.8806,-0.44841 1.32039,-0.51217 1.69941,-0.51217 0.37696,0 0,-0.89368 -0.69418,-1.27833 -0.69213,-0.38152 -1.50991,-0.19128 -3.14752,0.25713 -1.63865,0.44736 -2.64697,-0.95954 -2.58105,-1.91593 0.0608,-0.96163 1.57376,-0.3857 1.57376,-0.3857 l -0.0618,-1.91593 c 0,0 2.51719,-1.59608 2.32871,-1.98178 -0.18745,-0.3836 -1.06908,-0.25295 -1.82609,-0.51112 -0.75392,-0.254 -1.19474,-0.95849 -1.19474,-0.95849 0,0 -0.12669,-0.51112 0.12462,-0.95535 0.25028,-0.44841 1.13191,-1.09019 1.13191,-1.09019 0,0 -0.56544,-0.0627 -1.5099,0.25609 -0.94446,0.31984 -1.63762,0.89472 -1.63762,0.89472 0,0 -0.18539,-0.0585 -0.95579,-0.12229 1.49961,-1.89293 3.79845,-3.10751 6.37847,-3.10751 l 0,0 z"
       id="path452"
       style="fill:#ffffff" />
  </g>
</svg>
