<?xml version="1.0" encoding="UTF-8" standalone="no"?>
<svg width="27px" height="31px" viewBox="0 0 27 31" version="1.1" xmlns="http://www.w3.org/2000/svg" xmlns:xlink="http://www.w3.org/1999/xlink" xmlns:sketch="http://www.bohemiancoding.com/sketch/ns">
    <!-- Generator: Sketch 3.2.2 (9983) - http://www.bohemiancoding.com/sketch -->
    <title>Rectangle 22 + Path 58</title>
    <desc>Created with Sketch.</desc>
    <defs></defs>
    <g id="Page-1" stroke="none" stroke-width="1" fill="none" fill-rule="evenodd" sketch:type="MSPage">
        <g id="Desktop-HD" sketch:type="MSArtboardGroup" transform="translate(-731.000000, -1332.000000)" fill="#F4F4F6">
            <g id="Group" sketch:type="MSLayerGroup" transform="translate(120.000000, 1331.000000)">
                <g id="Wir-setzen-auf-nutze-+-Rectangle-4-+-Rectangle-22-+-Path-58-+-Verifizieren" transform="translate(611.000000, 1.000000)" sketch:type="MSShapeGroup">
                    <g id="Rectangle-4-+-Rectangle-22-+-Path-58-+-Verifizieren">
                        <g id="Rectangle-22-+-Path-58">
                            <path d="M0,13.3522059 C0,5.97798621 5.97957366,0 13.359375,0 C20.7375541,0 26.71875,5.9870062 26.71875,13.3522059 L26.71875,13.5492364 C26.71875,20.9234561 20.7391763,26.9014423 13.359375,26.9014423 C5.98119592,26.9014423 0,20.9144361 0,13.5492364 L0,13.3522059 Z M6.56046196,15.5745192 C7.7254376,15.5745192 8.66983696,14.6236624 8.66983696,13.4507212 C8.66983696,12.2777799 7.7254376,11.3269231 6.56046196,11.3269231 C5.39548631,11.3269231 4.45108696,12.2777799 4.45108696,13.4507212 C4.45108696,14.6236624 5.39548631,15.5745192 6.56046196,15.5745192 Z M13.591712,15.5745192 C14.7566876,15.5745192 15.701087,14.6236624 15.701087,13.4507212 C15.701087,12.2777799 14.7566876,11.3269231 13.591712,11.3269231 C12.4267363,11.3269231 11.482337,12.2777799 11.482337,13.4507212 C11.482337,14.6236624 12.4267363,15.5745192 13.591712,15.5745192 Z M20.622962,15.5745192 C21.7879376,15.5745192 22.732337,14.6236624 22.732337,13.4507212 C22.732337,12.2777799 21.7879376,11.3269231 20.622962,11.3269231 C19.4579863,11.3269231 18.513587,12.2777799 18.513587,13.4507212 C18.513587,14.6236624 19.4579863,15.5745192 20.622962,15.5745192 Z" id="Rectangle-22"></path>
                            <path d="M3.83455717,22.0919611 L11.1394887,30.5871534 L17.8970572,22.651167 L3.83455717,22.0919611 Z" id="Path-58"></path>
                        </g>
                    </g>
                </g>
            </g>
        </g>
    </g>
</svg>