<?xml version="1.0" encoding="UTF-8" standalone="no"?>
<svg width="30px" height="30px" viewBox="0 0 30 30" version="1.1" xmlns="http://www.w3.org/2000/svg" xmlns:xlink="http://www.w3.org/1999/xlink" xmlns:sketch="http://www.bohemiancoding.com/sketch/ns">
    <!-- Generator: Sketch 3.2.2 (9983) - http://www.bohemiancoding.com/sketch -->
    <title>Shape</title>
    <desc>Created with Sketch.</desc>
    <defs></defs>
    <g id="Page-1" stroke="none" stroke-width="1" fill="none" fill-rule="evenodd" sketch:type="MSPage">
        <g id="Desktop-HD" sketch:type="MSArtboardGroup" transform="translate(-425.000000, -1331.000000)" fill="#F4F4F6">
            <g id="Group" sketch:type="MSLayerGroup" transform="translate(120.000000, 1331.000000)">
                <g id="Rectangle-4-+-Rectangle-22-+-Path-58-+-Verifizieren-2-+-Wir-setzen-auf-nutze-+-Rectangle-4-+-Rectangle-22-+-Path-58-+-Verifizieren" transform="translate(305.000000, 0.000000)" sketch:type="MSShapeGroup">
                    <g id="Rectangle-4-+-Rectangle-22-+-Path-58-+-Verifizieren-2">
                        <path d="M22.5290391,1.99969259 C20.2306714,0.666450867 17.7215389,0 14.9998632,0 C12.2785295,0 9.76857616,0.666654862 7.47068723,1.99969259 C5.17245625,3.33279832 3.35308041,5.14148383 2.01173879,7.4259531 C0.6706024,9.71035437 0,12.2049382 0,14.9096367 C0,18.1585932 0.953605779,21.0801381 2.86129619,23.6750194 C4.76878138,26.2701047 7.23296986,28.0658025 10.2536564,29.0623169 C10.6052729,29.1271872 10.8655648,29.0815604 11.0348059,28.9265924 C11.2041154,28.7714204 11.2886676,28.5770814 11.2886676,28.3443913 C11.2886676,28.3055643 11.2853156,27.9562573 11.2788168,27.2960623 C11.2721128,26.6358673 11.2689661,26.0599221 11.2689661,25.5684987 L10.8197316,25.6457447 C10.5333078,25.6978994 10.1719774,25.7199988 9.73574038,25.713743 C9.29970858,25.7076911 8.84705367,25.6622683 8.37839132,25.5778145 C7.90952374,25.4941086 7.47342354,25.2999736 7.06974867,24.9958174 C6.76869601,24.7688684 6.53280908,24.4895993 6.36211632,24.1582642 C6.30404728,24.0455453 6.25352338,23.9268006 6.21054576,23.8020401 L6.01524127,23.3552916 C5.88506109,23.0578672 5.68011109,22.7274637 5.40011766,22.365305 C5.12012423,22.0028064 4.83698403,21.7570607 4.55056026,21.62766 L4.41381292,21.5303545 C4.32269363,21.4656882 4.23814149,21.3876942 4.15995129,21.2971885 C4.0818295,21.2066828 4.02334077,21.1161092 3.98427987,21.0253995 C3.94515057,20.9346218 3.9775759,20.8601637 4.08189791,20.8017532 C4.18621992,20.7433427 4.37475202,20.7149875 4.64831511,20.7149875 L5.03878727,20.77299 C5.29921605,20.8248726 5.62134873,20.9798407 6.00559576,21.238846 C6.38963758,21.4976473 6.70533992,21.8341027 6.9527712,22.2480761 C7.2523977,22.7788704 7.61338605,23.183324 8.03676239,23.4616409 C8.45979669,23.7399577 8.88631979,23.8788781 9.31592125,23.8788781 C9.7455227,23.8788781 10.116567,23.846511 10.429191,23.7821166 C10.741473,23.7173823 11.0344639,23.6200768 11.308027,23.4907441 C11.4252097,22.6232224 11.744264,21.9567715 12.2649163,21.4909155 C11.5228277,21.4133975 10.8556457,21.2966445 10.2630283,21.1414045 C9.6707529,20.9859605 9.05870764,20.733687 8.42730295,20.383904 C7.79555622,20.034597 7.27148349,19.6008361 6.85494794,19.0833694 C6.43834398,18.5656307 6.09644142,17.8859202 5.82971912,17.0448498 C5.56286,16.2034394 5.42939623,15.2328324 5.42939623,14.1327567 C5.42939623,12.5664169 5.94382345,11.2335152 6.97247267,10.1333035 C6.4906076,8.95570977 6.53609884,7.63559171 7.1090832,6.17308531 C7.48669467,6.0564683 8.04668153,6.14398205 8.78877016,6.43508257 C9.53099561,6.72631908 10.0744278,6.97580467 10.4196139,7.18265535 C10.7648,7.38943804 11.0413731,7.56466953 11.2497435,7.70678588 C12.4609049,7.37039853 13.7107852,7.20217085 14.9997264,7.20217085 C16.2886676,7.20217085 17.5388215,7.37039853 18.7500513,7.70678588 L19.4922083,7.24106585 C19.9997264,6.93031384 20.5990478,6.64553716 21.288736,6.38666781 C21.9788346,6.12793447 22.506533,6.0566723 22.8712837,6.1732893 C23.456992,7.6358637 23.5091872,8.95591377 23.0271853,10.1335075 C24.0557661,11.2337192 24.5703985,12.5669609 24.5703985,14.1329607 C24.5703985,15.2330364 24.4364559,16.2067034 24.1700073,17.0545736 C23.9032165,17.9025798 23.5583724,18.5816103 23.1353381,19.0930932 C22.711825,19.604508 22.1844003,20.034869 21.5529956,20.384108 C20.9214541,20.733619 20.3092036,20.9858925 19.7169282,21.1413365 C19.1243792,21.2967805 18.4571972,21.4136015 17.7151086,21.4912555 C18.3919361,22.0734565 18.7304182,22.9924529 18.7304182,24.2478366 L18.7304182,28.3438473 C18.7304182,28.5765374 18.8118236,28.7708084 18.9747712,28.9260484 C19.1375135,29.0810164 19.3945219,29.1266432 19.7461384,29.0617049 C22.7672354,28.0653265 25.2314238,26.2695607 27.1388406,23.6744754 C29.0460522,21.0795941 30,18.1580492 30,14.9090927 C29.9993159,12.2047342 29.3283715,9.71035437 27.9878508,7.4259531 C26.6465091,5.14148383 24.8270649,3.33286632 22.5290391,1.99969259 Z" id="Shape"></path>
                    </g>
                </g>
            </g>
        </g>
    </g>
</svg>