<?xml version="1.0" encoding="UTF-8" standalone="no"?>
<svg width="23px" height="23px" viewBox="0 0 23 23" version="1.1" xmlns="http://www.w3.org/2000/svg" xmlns:xlink="http://www.w3.org/1999/xlink" xmlns:sketch="http://www.bohemiancoding.com/sketch/ns">
    <!-- Generator: Sketch 3.2.2 (9983) - http://www.bohemiancoding.com/sketch -->
    <title>safari1</title>
    <desc>Created with Sketch.</desc>
    <defs></defs>
    <g id="Page-1" stroke="none" stroke-width="1" fill="none" fill-rule="evenodd" sketch:type="MSPage">
        <g id="Desktop-HD" sketch:type="MSArtboardGroup" transform="translate(-812.000000, -822.000000)">
            <g id="Rectangle-4-+-Safari-+-safari1-+-Rectangle-4-+-chrome4-+-Rectangle-4-+-firefox" sketch:type="MSLayerGroup" transform="translate(529.000000, 814.000000)">
                <g id="Rectangle-4-+-Safari-+-safari1" transform="translate(273.333874, 0.000000)" sketch:type="MSShapeGroup">
                    <g id="safari1" transform="translate(9.887496, 8.289855)">
                        <path d="M11.1232018,0 C4.98979641,0 1.77635684e-15,5.0205431 1.77635684e-15,11.190878 C1.77635684e-15,17.3620656 4.98979641,22.3826087 11.1232018,22.3826087 C17.2566072,22.3826087 22.2468659,17.3620656 22.2468659,11.190878 C22.2467888,5.0205431 17.2566072,0 11.1232018,0 L11.1232018,0 Z" id="Shape" fill="#F4F4F6"></path>
                        <path d="M9.41530928,9.94782609 L12.3593699,13.1116523 L5.76770597,16.5797101 L9.41530928,9.94782609 L9.41530928,9.94782609 Z" id="Shape" fill="#4986E2"></path>
                        <path d="M14.3590573,4.97391304 L17.3031179,8.13773928 L10.7114539,11.6057971 L14.3590573,4.97391304 L14.3590573,4.97391304 Z" id="Shape-2" fill="#4986E2" transform="translate(14.007286, 8.289855) scale(-1, -1) translate(-14.007286, -8.289855) "></path>
                    </g>
                </g>
            </g>
        </g>
    </g>
</svg>