<?xml version="1.0" encoding="UTF-8" standalone="no"?>
<svg width="30px" height="30px" viewBox="0 0 30 30" version="1.1" xmlns="http://www.w3.org/2000/svg" xmlns:xlink="http://www.w3.org/1999/xlink" xmlns:sketch="http://www.bohemiancoding.com/sketch/ns">
    <!-- Generator: Sketch 3.2.2 (9983) - http://www.bohemiancoding.com/sketch -->
    <title>Rectangle 22 + # 2</title>
    <desc>Created with Sketch.</desc>
    <defs></defs>
    <g id="Page-1" stroke="none" stroke-width="1" fill="none" fill-rule="evenodd" sketch:type="MSPage">
        <g id="Desktop-HD" sketch:type="MSArtboardGroup" transform="translate(-120.000000, -1331.000000)">
            <g id="Group" sketch:type="MSLayerGroup" transform="translate(120.000000, 1331.000000)">
                <g id="Rectangle-4-+-Rectangle-22-+-Path-58-+-Verifizieren-2-+-Wir-setzen-auf-nutze-+-Rectangle-4-+-Rectangle-22-+-Path-58-+-Verifizieren-+-Rectangle-22-+-#-2" sketch:type="MSShapeGroup">
                    <g id="Rectangle-22-+-#-2">
                        <rect id="Rectangle-22" fill="#F4F4F6" x="0" y="0" width="30" height="30" rx="50"></rect>
                        <path d="M8.75,15.1984341 C8.75,14.6500327 9.19253119,14.2054656 9.74358069,14.2054656 L13.5452586,14.2054656 L13.5452586,9.75061647 C13.5452586,9.19799125 13.9998653,8.75 14.5465375,8.75 L15.4534625,8.75 C16.0064535,8.75 16.4547414,9.19644365 16.4547414,9.75061647 L16.4547414,14.2054656 L20.2564193,14.2054656 C20.8051588,14.2054656 21.25,14.6490701 21.25,15.1984341 L21.25,16.0515659 C21.25,16.5999673 20.8074688,17.0445344 20.2564193,17.0445344 L16.4547414,17.0445344 L16.4547414,21.4993835 C16.4547414,22.0520087 16.0001347,22.5 15.4534625,22.5 L14.5465375,22.5 C13.9935465,22.5 13.5452586,22.0535564 13.5452586,21.4993835 L13.5452586,17.0445344 L9.74358069,17.0445344 C9.19484123,17.0445344 8.75,16.6009299 8.75,16.0515659 L8.75,15.1984341 Z" id="+" fill="#3E3E47"></path>
                    </g>
                </g>
            </g>
        </g>
    </g>
</svg>